nColumns=19
nRows=74
DataType=double
version=3
OpenSimVersion=4.1
endheader
time	ground_force_1_vx	ground_force_1_vy	ground_force_1_vz	ground_force_1_px	ground_force_1_py	ground_force_1_pz	ground_force_1_mx	ground_force_1_my	ground_force_1_mz	ground_force_2_vx	ground_force_2_vy	ground_force_2_vz	ground_force_2_px	ground_force_2_py	ground_force_2_pz	ground_force_2_mx	ground_force_2_my	ground_force_2_mz
0	-27.5867	129.981	1.82236	0.112473	0.006	-0.159231	0	-0.298805	0	0	0	0	0.762513	0	-0.332515	0	0	0
0.01	-26.9071	164.09	-2.54844	0.113535	0.006	-0.158272	0	-0.194338	0	0	0	0	0.762513	0	-0.332515	0	0	0
0.02	-42.0255	226.751	-8.32883	0.117342	0.006	-0.156044	0	-0.212513	0	0	0	0	0.762513	0	-0.332515	0	0	0
0.03	-63.9046	280.548	-9.3677	0.121716	0.006	-0.155124	0	-0.262581	0	0	0	0	0.762513	0	-0.332515	0	0	0
0.04	-75.0587	340.102	-11.0398	0.127205	0.006	-0.15541	0	0.0518891	0	0	0	0	0.762513	0	-0.332515	0	0	0
0.05	-94.7982	414.349	-14.6862	0.136902	0.006	-0.156335	0	0.402494	0	0	0	0	0.762513	0	-0.332515	0	0	0
0.06	-125.782	501.461	-19.0969	0.148756	0.006	-0.157976	0	0.44171	0	0	0	0	0.762513	0	-0.332515	0	0	0
0.07	-147.77	573.8	-23.9098	0.157781	0.006	-0.159627	0	0.571494	0	0	0	0	0.762513	0	-0.332515	0	0	0
0.08	-154.917	612.769	-30.4663	0.163551	0.006	-0.160469	0	0.843849	0	0	0	0	0.762513	0	-0.332515	0	0	0
0.09	-157.827	636.893	-38.3433	0.167994	0.006	-0.160795	0	1.10679	0	0	0	0	0.762513	0	-0.332515	0	0	0
0.1	-160.571	661.923	-45.0349	0.17155	0.006	-0.161041	0	1.43026	0	0	0	0	0.762513	0	-0.332515	0	0	0
0.11	-160.406	686.186	-49.6137	0.174208	0.006	-0.16135	0	1.79769	0	0	0	0	0.762513	0	-0.332515	0	0	0
0.12	-158.082	708.926	-53.3448	0.176741	0.006	-0.161614	0	2.09726	0	0	0	0	0.762513	0	-0.332515	0	0	0
0.13	-155.973	730.789	-56.6494	0.179783	0.006	-0.161843	0	2.24218	0	0	0	0	0.762513	0	-0.332515	0	0	0
0.14	-153.152	747.594	-58.0863	0.18325	0.006	-0.162194	0	2.33442	0	0	0	0	0.762513	0	-0.332515	0	0	0
0.15	-148.578	756.479	-58.1976	0.187065	0.006	-0.162631	0	2.39378	0	0	0	0	0.762513	0	-0.332515	0	0	0
0.16	-142.939	755.832	-58.2465	0.191045	0.006	-0.163087	0	2.3664	0	0	0	0	0.762513	0	-0.332515	0	0	0
0.17	-135.002	744.209	-57.4758	0.195003	0.006	-0.163541	0	2.35485	0	0	0	0	0.762513	0	-0.332515	0	0	0
0.18	-125.955	724.467	-55.5952	0.198826	0.006	-0.163937	0	2.33799	0	0	0	0	0.762513	0	-0.332515	0	0	0
0.19	-116.197	698.803	-52.6655	0.202263	0.006	-0.164231	0	2.29325	0	0	0	0	0.762513	0	-0.332515	0	0	0
0.2	-105.292	669.648	-49.4676	0.205292	0.006	-0.164393	0	2.14067	0	0	0	0	0.762513	0	-0.332515	0	0	0
0.21	-93.6239	638.929	-46.433	0.207865	0.006	-0.164376	0	1.86373	0	0	0	0	0.762513	0	-0.332515	0	0	0
0.22	-82.037	606.629	-43.784	0.21034	0.006	-0.164251	0	1.53302	0	0	0	0	0.762513	0	-0.332515	0	0	0
0.23	-70.9927	573.091	-41.4587	0.213059	0.006	-0.164028	0	1.21712	0	0	0	0	0.762513	0	-0.332515	0	0	0
0.24	-60.9661	539.579	-39.224	0.216058	0.006	-0.163785	0	0.933871	0	0	0	0	0.762513	0	-0.332515	0	0	0
0.25	-52.4027	507.433	-37.1256	0.219376	0.006	-0.16356	0	0.658751	0	0	0	0	0.762513	0	-0.332515	0	0	0
0.26	-45.0784	478.535	-35.2886	0.223034	0.006	-0.16337	0	0.403288	0	0	0	0	0.762513	0	-0.332515	0	0	0
0.27	-38.9009	454.761	-33.6758	0.22699	0.006	-0.163464	0	0.171337	0	0	0	0	0.762513	0	-0.332515	0	0	0
0.28	-33.7514	436.055	-31.6244	0.231307	0.006	-0.163827	0	-0.0620365	0	0	0	0	0.762513	0	-0.332515	0	0	0
0.29	-29.7694	420.433	-29.4226	0.235939	0.006	-0.164371	0	-0.320637	0	0	0	0	0.762513	0	-0.332515	0	0	0
0.3	-26.8837	407.377	-27.9089	0.240545	0.006	-0.165045	0	-0.583754	0	0	0	0	0.762513	0	-0.332515	0	0	0
0.31	-24.797	398.72	-27.2702	0.244675	0.006	-0.165843	0	-0.837683	0	0	0	0	0.762513	0	-0.332515	0	0	0
0.32	-23.0783	395.61	-27.1753	0.248279	0.006	-0.166664	0	-1.08145	0	0	0	0	0.762513	0	-0.332515	0	0	0
0.33	-21.5264	398.683	-26.9845	0.251314	0.006	-0.167615	0	-1.33837	0	0	0	0	0.762513	0	-0.332515	0	0	0
0.34	-20.5161	406.254	-26.1833	0.253861	0.006	-0.168843	0	-1.60063	0	0	0	0	0.762513	0	-0.332515	0	0	0
0.35	-19.9128	416.597	-25.3081	0.255926	0.006	-0.170182	0	-1.89585	0	0	0	0	0.762513	0	-0.332515	0	0	0
0.36	-18.8164	429.582	-25.1585	0.257511	0.006	-0.171417	0	-2.24506	0	0	0	0	0.762513	0	-0.332515	0	0	0
0.37	-16.4751	446.56	-25.9461	0.258839	0.006	-0.172515	0	-2.6233	0	0	0	0	0.762513	0	-0.332515	0	0	0
0.38	-12.952	468.724	-26.9381	0.259977	0.006	-0.173624	0	-3.01662	0	0	0	0	0.762513	0	-0.332515	0	0	0
0.39	-8.63947	494.987	-27.6505	0.261092	0.006	-0.174751	0	-3.4163	0	0	0	0	0.762513	0	-0.332515	0	0	0
0.4	-3.78739	522.77	-28.2148	0.262392	0.006	-0.175799	0	-3.81852	0	0	0	0	0.762513	0	-0.332515	0	0	0
0.41	1.46195	550.436	-29.0753	0.263827	0.006	-0.176888	0	-4.20999	0	0	0	0	0.762513	0	-0.332515	0	0	0
0.42	7.13751	577.323	-30.4771	0.26543	0.006	-0.178054	0	-4.54809	0	0	0	0	0.762513	0	-0.332515	0	0	0
0.43	13.2955	603.931	-32.4215	0.267227	0.006	-0.179336	0	-4.83082	0	0	0	0	0.762513	0	-0.332515	0	0	0
0.44	19.9297	630.038	-34.2301	0.269285	0.006	-0.180703	0	-5.07187	0	0	0	0	0.762513	0	-0.332515	0	0	0
0.45	27.0313	653.76	-35.3791	0.271717	0.006	-0.182085	0	-5.27314	0	0	0	0	0.762513	0	-0.332515	0	0	0
0.46	34.7543	673.162	-35.9468	0.274447	0.006	-0.183463	0	-5.42774	0	0	0	0	0.762513	0	-0.332515	0	0	0
0.47	43.0189	688.143	-36.3845	0.277392	0.006	-0.184742	0	-5.50705	0	0	0	0	0.762513	0	-0.332515	0	0	0
0.48	51.4766	698.726	-36.9377	0.280599	0.006	-0.185916	0	-5.5045	0	0	0	0	0.762513	0	-0.332515	0	0	0
0.49	59.6556	704.964	-37.3824	0.283967	0.006	-0.187049	0	-5.41729	0	0	0	0	0.762513	0	-0.332515	0	0	0
0.5	67.4637	707.537	-37.3977	0.287475	0.006	-0.188239	0	-5.2698	0	0	0	0	0.762513	0	-0.332515	0	0	0
0.51	74.6488	706.409	-37.0064	0.291028	0.006	-0.189407	0	-5.07778	0	0	0	0	0.762513	0	-0.332515	0	0	0
0.52	81.4636	702.064	-35.8444	0.294474	0.006	-0.190568	0	-4.88426	0	0	0	0	0.762513	0	-0.332515	0	0	0
0.53	88.6235	695.541	-33.5518	0.297639	0.006	-0.191691	0	-4.75936	0	0	0	0	0.762513	0	-0.332515	0	0	0
0.54	96.4596	686.808	-30.9179	0.300292	0.006	-0.192649	0	-4.66397	0	0	0	0	0.762513	0	-0.332515	0	0	0
0.55	104.543	676.208	-28.8609	0.302485	0.006	-0.193388	0	-4.47771	0	-4.93757	14.6503	-2.05597	0.763685	0.0027	-0.334103	0	0.265338	0
0.56	112.64	662.591	-26.6632	0.304683	0.006	-0.194022	0	-4.17439	0	-7.23106	82.112	-1.70824	0.777495	0.006	-0.351439	0	0.876763	0
0.57	120.559	643.081	-23.8152	0.306854	0.006	-0.19459	0	-3.79503	0	-3.14765	150.407	5.37636	0.785616	0.006	-0.358786	0	1.03441	0
0.58	127.655	615.62	-20.0232	0.308922	0.006	-0.194971	0	-3.37286	0	-14.177	194.158	8.03156	0.789932	0.006	-0.361394	0	1.06501	0
0.59	132.624	578.895	-15.023	0.311129	0.006	-0.194904	0	-2.95381	0	-26.131	229.579	6.74963	0.794558	0.006	-0.361967	0	0.749571	0
0.6	134.074	532.255	-9.55589	0.313905	0.006	-0.19432	0	-2.47564	0	-36.5475	280.108	4.58333	0.805646	0.006	-0.360098	0	0.0593436	0
0.61	131.856	475.944	-5.16501	0.31743	0.006	-0.193406	0	-1.90794	0	-63.4039	362.831	-0.466118	0.823419	0.006	-0.355796	0	-0.599156	0
0.62	124.844	412.475	-0.867841	0.321803	0.006	-0.192453	0	-1.48431	0	-93.1838	451.861	-2.0874	0.836585	0.006	-0.352735	0	-0.761372	0
0.63	112.17	345.986	2.95737	0.326997	0.006	-0.191522	0	-1.14451	0	-102.946	504.369	3.28717	0.843105	0.006	-0.35181	0	-0.691291	0
0.64	96.4714	277.811	4.72383	0.332846	0.006	-0.190444	0	-0.736545	0	-103.563	520.3	8.23365	0.847452	0.006	-0.351589	0	-1.00169	0
0.65	80.4359	209.983	5.23433	0.339142	0.006	-0.189487	0	-0.460651	0	-104.719	529.351	12.0146	0.851249	0.006	-0.351488	0	-1.55044	0
0.66	61.5664	148.855	5.31676	0.346171	0.006	-0.189376	0	-0.258466	0	-107.21	546.173	19.3049	0.855033	0.006	-0.351863	0	-1.8827	0
0.67	41.1429	98.9463	5.05889	0.354624	0.006	-0.190178	0	-0.127083	0	-111.557	568.164	28.4399	0.859298	0.006	-0.352522	0	-2.12243	0
0.68	22.5689	61.2926	3.79029	0.365201	0.006	-0.191854	0	-0.0480114	0	-115.909	591.202	36.0667	0.863495	0.006	-0.352929	0	-2.46591	0
0.69	9.76313	34.3834	2.48729	0.376771	0.006	-0.192976	0	0.0587258	0	-117.961	615.484	42.5073	0.86691	0.006	-0.353181	0	-2.73869	0
0.7	0.76647	4.37794	0.352816	0.395085	0.0012	-0.192396	0	0.0160872	0	-114.649	639.606	47.677	0.869185	0.006	-0.353496	0	-2.88439	0
0.71	0	0	0	0.422183	0	-0.191446	0	0	0	-106.639	658.295	50.8073	0.87062	0.006	-0.353765	0	-2.90399	0
0.72	0	0	0	0.449377	0	-0.190498	0	0	0	-96.6891	666.449	52.6004	0.871878	0.006	-0.354037	0	-2.83108	0
0.73	0	0	0	0.47657	0	-0.189551	0	0	0	-87.6397	664.457	54.3631	0.873689	0.006	-0.35442	0	-2.71721	0
